<svg width="52" height="52" viewBox="0 0 52 52" fill="none" xmlns="http://www.w3.org/2000/svg">
    <path d="M47.6667 36.27V10.1183C47.6667 7.51834 45.5434 5.59 42.965 5.80667H42.835C38.285 6.19667 31.3734 8.515 27.5167 10.9417L27.1484 11.18C26.52 11.57 25.48 11.57 24.8517 11.18L24.31 10.855C20.4534 8.45 13.5634 6.15334 9.01337 5.785C6.43504 5.56834 4.33337 7.51834 4.33337 10.0967V36.27C4.33337 38.35 6.02337 40.3 8.10337 40.56L8.73171 40.6467C13.4334 41.275 20.6917 43.6583 24.8517 45.9333L24.9384 45.9767C25.5234 46.3017 26.455 46.3017 27.0184 45.9767C31.1784 43.68 38.4584 41.275 43.1817 40.6467L43.8967 40.56C45.9767 40.3 47.6667 38.35 47.6667 36.27Z" stroke="#0D1345" stroke-width="1.5" stroke-linecap="round" stroke-linejoin="round"/>
    <path d="M26 11.895V44.395" stroke="#0D1345" stroke-width="1.5" stroke-linecap="round" stroke-linejoin="round"/>
    <path d="M16.7916 18.395H11.9166" stroke="#0D1345" stroke-width="1.5" stroke-linecap="round" stroke-linejoin="round"/>
    <path d="M18.4166 24.895H11.9166" stroke="#0D1345" stroke-width="1.5" stroke-linecap="round" stroke-linejoin="round"/>
</svg>
