<svg width="459" height="459" viewBox="0 0 459 459" fill="none" xmlns="http://www.w3.org/2000/svg">
    <g clip-path="url(#clip0_129_255)">
        <path d="M459 229.5C459.028 254.595 454.934 279.525 446.88 303.293C446.418 304.651 445.945 306.005 445.461 307.353C436.932 330.94 424.599 352.97 408.951 372.571C404.28 378.431 399.33 384.048 394.102 389.424C388.874 394.808 383.385 399.93 377.636 404.789C345.57 431.982 306.617 449.793 265.073 456.257H265.066C259.77 457.078 254.421 457.719 249.021 458.178C242.591 458.722 236.084 458.995 229.5 459C198.882 459.04 168.568 452.934 140.353 441.043C112.139 429.152 86.5982 411.719 65.2446 389.777C63.744 388.242 62.2661 386.685 60.8108 385.105C57.185 381.174 53.6972 377.12 50.3475 372.944C48.4667 370.595 46.6311 368.209 44.8408 365.788C33.8133 350.89 24.6384 334.706 17.5181 317.593C14.4816 310.304 11.8299 302.861 9.57389 295.295C9.41093 294.758 9.25476 294.222 9.09859 293.685C8.75909 292.531 8.43092 291.37 8.11406 290.202C2.71275 270.421 -0.0161566 250.005 7.1956e-05 229.5C7.1956e-05 102.752 102.752 0 229.5 0C356.248 0 459 102.752 459 229.5Z" fill="white"/>
        <path d="M97.3323 137.178C96.977 139.336 97.0991 141.545 97.6898 143.65C98.2806 145.755 99.3257 147.705 100.752 149.362C102.177 151.02 103.949 152.344 105.943 153.243C107.936 154.141 110.102 154.592 112.288 154.563L148.923 261.16L172.298 245.095L127.173 138.332C126.881 134.662 125.253 131.228 122.597 128.679C119.942 126.129 116.443 124.643 112.765 124.501C109.087 124.359 105.484 125.571 102.64 127.907C99.7954 130.244 97.907 133.543 97.3323 137.178V137.178Z" fill="#FAA6B2"/>
        <path d="M288.542 173.245C272.273 191.755 232.158 224.374 199.112 246.835C191.969 251.69 185.152 256.062 178.98 259.722C174.811 262.194 170.933 264.332 167.443 266.077C165.101 267.244 162.543 267.915 159.929 268.047C157.316 268.18 154.703 267.771 152.255 266.847C149.806 265.922 147.575 264.503 145.701 262.676C143.827 260.85 142.35 258.656 141.363 256.232L118.481 200.874L126.398 195.625L145.919 182.677L150.353 179.743L168.659 223.341L187.963 207.847L199.947 198.225L254.579 154.383L259.291 152.984L270.284 163.712L278.058 171.303L285.371 172.573C286.464 172.763 287.524 172.987 288.542 173.245Z" fill="#6AC5F8"/>
        <path d="M434.502 325.348C435.636 326.788 436.811 328.22 437.985 329.66C433.939 337.968 429.39 346.023 424.365 353.778C423.991 353.513 423.618 353.248 423.244 352.983C423.185 352.951 423.128 352.915 423.074 352.875C421.683 351.883 420.284 350.906 418.892 349.914V349.908C417.744 346 417.102 341.961 416.984 337.889C417.702 337.725 418.352 337.343 418.845 336.797C419.339 336.25 419.653 335.565 419.744 334.834C419.835 334.103 419.7 333.362 419.355 332.711C419.011 332.06 418.475 331.53 417.819 331.194C417.636 330.875 417.507 330.644 417.323 330.319C417.33 330.237 417.344 330.149 417.351 330.067C418.417 321.587 429.226 318.626 434.502 325.348Z" fill="white"/>
        <path d="M446.69 296.287C447.505 298.528 448.247 300.794 448.917 303.084C448.455 304.442 447.982 305.796 447.498 307.144C447.314 306.432 447.124 305.719 446.927 305.006C445.823 301.041 444.497 297.142 442.955 293.327C441.692 290.197 440.294 287.132 438.759 284.133C430.415 267.842 418.323 253.763 403.479 243.054C397.344 241.635 391.791 238.37 387.57 233.698C386.047 232.019 384.773 230.13 383.788 228.089C384.412 228.001 385.037 227.879 385.648 227.75C385.838 227.709 386.035 227.661 386.225 227.621L386.3 227.607C386.968 227.452 387.577 227.108 388.054 226.615C388.531 226.122 388.855 225.502 388.988 224.829C389.12 224.156 389.056 223.459 388.802 222.822C388.548 222.185 388.115 221.635 387.556 221.238C387.21 220.987 386.857 220.743 386.511 220.498C385.981 220.111 385.445 219.744 384.908 219.364C384.852 219.329 384.797 219.29 384.745 219.249C384.134 218.814 383.523 218.393 382.919 217.952C383.387 216.439 384.198 215.054 385.288 213.905C389.084 209.987 395.86 210.076 400.287 213.267C404.721 216.458 406.948 222.046 407.233 227.492C407.485 232.156 406.48 236.774 405.156 241.275C405.488 241.52 405.835 241.751 406.167 242.002C412.28 246.532 417.934 251.652 423.047 257.286C420.094 250.279 419.021 241.14 419.788 234.845C420.664 227.675 424.147 220.865 426.999 214.082C430.414 205.934 442.066 205.825 445.352 214.027C445.386 214.109 445.42 214.183 445.447 214.265C444.897 214.815 444.368 215.385 443.858 215.976C443.219 216.72 442.819 217.64 442.712 218.616C442.604 219.591 442.793 220.576 443.255 221.442C443.716 222.308 444.429 223.014 445.298 223.469C446.168 223.923 447.155 224.104 448.129 223.988L448.231 223.975C448.655 226.395 448.895 228.844 448.951 231.301C449.035 238.174 447.699 244.991 445.025 251.324C442.352 257.656 438.4 263.369 433.415 268.102C433.09 268.408 432.77 268.707 432.438 268.999C435.583 273.472 438.408 278.162 440.891 283.033C443.095 287.328 445.032 291.754 446.69 296.287V296.287Z" fill="white"/>
        <path d="M315.858 232.589L313.808 373.42L148.16 368.667L174.614 310.273C174.424 308.399 186.225 295.247 186.157 293.298C185.953 287.588 190.217 282.299 190.91 276.323C192.322 264 184.235 217.461 187.963 207.847C189.551 203.553 191.585 199.439 194.033 195.571C196.151 192.366 198.324 190.207 200.402 189.426L206.526 175.153L211.958 167.005L254.579 154.383L259.291 152.984L270.284 163.712L278.058 171.303L285.371 172.573C286.464 172.763 287.524 172.987 288.542 173.245C293.447 174.376 298.019 176.641 301.891 179.859C314.656 190.702 316.143 211.099 315.858 232.589Z" fill="#6AC5F8"/>
        <path d="M410.988 372.362C406.317 378.222 401.367 383.839 396.139 389.215L378.227 389.228L281.898 389.337L264.556 389.357L253.027 389.371L235.876 389.384L222.683 389.398L198.314 389.425L183.939 389.445L153.67 389.473L139.221 389.493L99.1806 389.534L74.0306 389.561L67.2814 389.568C65.7808 388.033 64.3029 386.476 62.8476 384.896C59.2217 380.965 55.734 376.911 52.3843 372.735L66.358 372.722L75.8775 372.715L97.9176 372.688L140.45 372.647L154.824 372.633L160.636 372.627H160.657L165.22 372.62L167.263 372.613L172.498 372.606H174.712L190.234 372.593L223.715 372.552L238.449 372.538L252.559 372.525L265.785 372.511L284.763 372.491L386.123 372.389L410.988 372.362Z" fill="#CCCCCC"/>
        <path d="M181.811 160.903L181.774 160.906C179.816 161.088 177.865 160.485 176.351 159.229C174.837 157.973 173.884 156.166 173.702 154.208L169.84 112.993C169.141 105.61 169.934 98.1612 172.171 91.0904C176.557 77.2902 186.099 65.7146 198.808 58.7761C205.371 55.2028 212.589 52.9954 220.028 52.2867C250.46 49.3874 261.581 55.7255 280.38 102.139C299.178 148.553 284.247 143.417 284.247 143.417C284.341 144.41 284.234 145.412 283.933 146.363C283.341 148.219 282.055 149.774 280.344 150.704C279.466 151.18 278.501 151.475 277.507 151.571C241.529 160.716 205.227 170.342 181.805 160.903L181.811 160.903Z" fill="#2F2E41"/>
        <path d="M248.775 91.3388C253.291 98.0209 255.726 105.891 255.772 113.956C255.817 122.021 253.472 129.919 249.032 136.652C244.592 143.385 238.256 148.651 230.825 151.785C223.394 154.919 215.2 155.781 207.28 154.261C202.037 153.273 197.042 151.253 192.585 148.32C188.127 145.387 184.297 141.599 181.314 137.174C176.807 130.495 174.379 122.63 174.336 114.572C174.293 106.514 176.636 98.624 181.071 91.8962C185.506 85.1684 191.833 79.9042 199.256 76.7674C206.678 73.6307 214.863 72.7617 222.778 74.2702C228.026 75.2532 233.026 77.2683 237.488 80.1985C241.951 83.1288 245.787 86.916 248.775 91.3404L248.775 91.3388Z" fill="#FAA6B2"/>
        <path d="M157.082 117.572C156.53 111.733 157.157 105.842 158.927 100.249C159.337 86.5696 163.306 74.179 179.991 74.6991C185.148 71.8934 190.818 70.1537 196.661 69.5837L204.906 68.7695C204.999 68.7603 205.092 68.7514 205.184 68.7427C210.897 68.2111 216.658 68.8098 222.139 70.5047C227.62 72.1995 232.713 74.9574 237.128 78.6207C241.544 82.284 245.194 86.7811 247.871 91.8553C250.549 96.9294 252.2 102.481 252.732 108.193L252.809 109.019L235.365 110.724L227.857 94.6582L228.228 111.426L219.218 112.31L215.432 104.204L215.617 112.658C202.24 124.44 181.955 125.057 157.168 118.398L157.082 117.572Z" fill="#2F2E41"/>
        <path d="M212.882 156.681C212.733 158.039 212.969 159.412 213.562 160.642C213.86 161.273 214.246 161.858 214.707 162.381C215.102 162.827 215.548 163.225 216.036 163.566C217.481 164.572 219.237 165.03 220.99 164.858C221.099 164.847 221.208 164.834 221.316 164.818C221.425 164.803 221.534 164.785 221.642 164.765C221.752 164.745 221.86 164.723 221.968 164.697C222.076 164.671 222.184 164.644 222.292 164.614L228.381 162.908L235.204 143.883L236.768 160.577L264.452 152.87L257.815 82.0267L210.629 86.6762L211.923 87.9223C216.223 92.1075 219.285 97.3977 220.771 103.211C222.247 109.102 222.703 115.202 222.118 121.246C221.572 127.358 220.44 133.404 218.739 139.3C217.257 144.52 215.477 149.651 213.405 154.667C213.137 155.311 212.961 155.989 212.882 156.681V156.681Z" fill="#2F2E41"/>
        <path d="M219.174 380.039C218.362 380.038 217.562 379.857 216.829 379.509L86.109 382.844C85.1059 382.369 84.2705 381.601 83.7132 380.641C83.1559 379.681 82.9028 378.575 82.9874 377.468C83.072 376.361 83.4903 375.306 84.1871 374.442C84.8838 373.578 85.8262 372.946 86.8899 372.629L172.41 347.129C173.296 346.865 174.234 346.829 175.137 347.025L307.423 363.148C308.594 363.401 309.649 364.03 310.429 364.94C311.208 365.849 311.669 366.988 311.74 368.184C311.811 369.379 311.49 370.565 310.824 371.561C310.158 372.556 309.184 373.306 308.052 373.697L220.965 379.737C220.389 379.937 219.783 380.039 219.174 380.039V380.039Z" fill="#3F3D56"/>
        <path d="M223.982 370.939C223.391 370.94 222.811 370.789 222.296 370.501L116.132 375.46C115.529 375.122 115.042 374.61 114.734 373.992C114.426 373.373 114.312 372.675 114.406 371.991C114.5 371.306 114.798 370.665 115.261 370.152C115.725 369.639 116.332 369.278 117.003 369.115L155.437 359.786C156.037 359.641 156.664 359.66 157.255 359.84L255.949 359.721C256.652 359.936 257.267 360.37 257.705 360.96C258.143 361.55 258.381 362.265 258.383 363C258.386 363.735 258.153 364.451 257.719 365.044C257.285 365.637 256.673 366.076 255.972 366.296L225.008 370.783C224.676 370.887 224.33 370.94 223.982 370.939V370.939Z" fill="#2F2E41"/>
        <path d="M212.807 365.281C214.644 366.466 216.719 367.233 218.886 367.529C221.052 367.825 223.257 367.643 225.345 366.994C227.433 366.346 229.353 365.248 230.971 363.777C232.589 362.306 233.864 360.499 234.708 358.482L347.078 367.309L341.646 339.47L225.744 338.366C222.261 337.173 218.462 337.299 215.067 338.721C211.671 340.142 208.915 342.759 207.32 346.077C205.726 349.395 205.403 353.182 206.415 356.721C207.426 360.261 209.7 363.306 212.807 365.281V365.281Z" fill="#FAA6B2"/>
        <path d="M279.179 183.98C279.179 183.98 296.154 170.4 316.524 194.844C330.261 211.329 356.76 310.982 358.957 352.277C359.096 354.89 358.694 357.504 357.776 359.954C356.857 362.404 355.443 364.639 353.62 366.517C351.798 368.395 349.608 369.876 347.186 370.868C344.765 371.86 342.165 372.341 339.549 372.281L279.654 371.238L272.957 333.588L320.244 334.148L279.179 183.98Z" fill="#6AC5F8"/>
        <path d="M211.903 380.054C209.848 380.053 207.815 379.641 205.921 378.843L84.76 381.608C81.5624 380.274 78.908 377.901 77.226 374.872C75.5441 371.843 74.9328 368.336 75.4911 364.916L70.989 258.51C71.5861 254.71 73.5865 251.271 76.5954 248.873C79.6042 246.475 83.4027 245.293 87.2408 245.559L199.725 250.225C201.884 250.366 203.99 250.96 205.905 251.968C207.819 252.975 209.501 254.374 210.841 256.074C212.18 257.773 213.147 259.735 213.68 261.832C214.212 263.929 214.298 266.115 213.931 268.248L227.11 367.224C226.49 370.81 224.626 374.063 221.844 376.41C219.063 378.756 215.543 380.047 211.903 380.054V380.054Z" fill="#3F3D56"/>
        <path d="M119.9 63.2618L69.3356 63.1192C67.9802 63.1176 66.6795 63.6535 65.7185 64.6094C64.7576 65.5652 64.2148 66.8631 64.2092 68.2185L64.0259 135.174C64.023 136.528 64.5578 137.828 65.5126 138.788C66.4675 139.748 67.7644 140.289 69.1183 140.294L97.1676 140.375L119.69 140.436C121.045 140.439 122.345 139.903 123.305 138.947C124.266 137.99 124.807 136.692 124.809 135.337L124.823 131.379L125 68.3882C125.002 67.0325 124.467 65.7311 123.511 64.7699C122.555 63.8087 121.256 63.2663 119.9 63.2618V63.2618Z" fill="#E6E6E6"/>
        <path d="M116.336 67.2611L72.88 67.1389C71.611 67.1373 70.3932 67.6388 69.4934 68.5336C68.5936 69.4283 68.0851 70.6433 68.0795 71.9122L67.9573 114.96C67.9488 120.614 70.1829 126.04 74.1696 130.048C78.1563 134.056 83.5701 136.32 89.2234 136.342L97.48 136.362L116.146 136.417C117.415 136.419 118.633 135.918 119.533 135.023C120.434 134.128 120.942 132.913 120.946 131.643L120.96 127.311L121.109 72.0616C121.112 70.7923 120.611 69.5738 119.716 68.6737C118.821 67.7736 117.605 67.2655 116.336 67.2611V67.2611Z" fill="white"/>
        <path d="M111.454 96.6751H77.5719C77.3049 96.6751 77.0404 96.7277 76.7937 96.8299C76.547 96.9321 76.3228 97.0819 76.1339 97.2708C75.9451 97.4596 75.7953 97.6838 75.6931 97.9305C75.5909 98.1772 75.5383 98.4417 75.5383 98.7087C75.5383 98.9758 75.5909 99.2402 75.6931 99.487C75.7953 99.7337 75.9451 99.9579 76.1339 100.147C76.3228 100.336 76.547 100.485 76.7937 100.588C77.0404 100.69 77.3049 100.742 77.5719 100.742H111.454C111.993 100.742 112.51 100.528 112.892 100.147C113.273 99.7653 113.487 99.2481 113.487 98.7087C113.487 98.1694 113.273 97.6521 112.892 97.2708C112.51 96.8894 111.993 96.6751 111.454 96.6751V96.6751Z" fill="#6AC5F8"/>
        <path d="M85.0205 85.5261H77.5719C77.0326 85.5261 76.5153 85.7403 76.134 86.1217C75.7526 86.5031 75.5383 87.0203 75.5383 87.5597C75.5383 88.099 75.7526 88.6163 76.134 88.9976C76.5153 89.379 77.0326 89.5933 77.5719 89.5933H85.0205C85.5598 89.5933 86.0771 89.379 86.4585 88.9976C86.8398 88.6163 87.0541 88.099 87.0541 87.5597C87.0541 87.0203 86.8398 86.5031 86.4585 86.1217C86.0771 85.7403 85.5598 85.5261 85.0205 85.5261V85.5261Z" fill="#6AC5F8"/>
        <path d="M111.454 114.553H77.5719C77.0326 114.553 76.5153 114.767 76.1339 115.149C75.7526 115.53 75.5383 116.047 75.5383 116.587C75.5383 117.126 75.7526 117.643 76.1339 118.025C76.5153 118.406 77.0326 118.62 77.5719 118.62H111.454C111.993 118.62 112.51 118.406 112.892 118.025C113.273 117.643 113.487 117.126 113.487 116.587C113.487 116.047 113.273 115.53 112.892 115.149C112.51 114.767 111.993 114.553 111.454 114.553V114.553Z" fill="#6AC5F8"/>
        <path d="M111.454 105.617H77.5719C77.0335 105.617 76.5171 105.831 76.1364 106.212C75.7556 106.593 75.5417 107.109 75.5417 107.648C75.5417 108.186 75.7556 108.702 76.1364 109.083C76.5171 109.464 77.0335 109.678 77.5719 109.678H111.454C111.992 109.678 112.509 109.464 112.889 109.083C113.27 108.702 113.484 108.186 113.484 107.648C113.484 107.109 113.27 106.593 112.889 106.212C112.509 105.831 111.992 105.617 111.454 105.617V105.617Z" fill="#6AC5F8"/>
        <path d="M104.87 92.7169C102.491 92.7169 100.165 92.0114 98.1868 90.6896C96.2086 89.3678 94.6667 87.4891 93.7563 85.291C92.8458 83.0929 92.6076 80.6742 93.0717 78.3408C93.5359 76.0073 94.6816 73.8639 96.3639 72.1816C98.0462 70.4992 100.19 69.3535 102.523 68.8894C104.857 68.4252 107.275 68.6634 109.473 69.5739C111.671 70.4844 113.55 72.0262 114.872 74.0044C116.194 75.9826 116.899 78.3084 116.899 80.6876C116.896 83.8768 115.627 86.9344 113.372 89.1896C111.117 91.4447 108.059 92.7133 104.87 92.7169V92.7169ZM104.87 69.4942C102.656 69.4942 100.492 70.1507 98.6512 71.3806C96.8105 72.6105 95.3758 74.3587 94.5286 76.404C93.6814 78.4493 93.4597 80.7 93.8916 82.8713C94.3235 85.0426 95.3895 87.037 96.9549 88.6025C98.5204 90.1679 100.515 91.234 102.686 91.6659C104.857 92.0978 107.108 91.8761 109.153 91.0289C111.199 90.1817 112.947 88.747 114.177 86.9063C115.407 85.0656 116.063 82.9014 116.063 80.6876C116.06 77.72 114.88 74.8748 112.781 72.7764C110.683 70.678 107.838 69.4976 104.87 69.4942V69.4942Z" fill="#6AC5F8"/>
        <path d="M109.922 85.347C109.091 81.0571 107.36 76.9921 104.844 73.4197C104.787 73.3271 104.708 73.2506 104.613 73.1975C104.518 73.1444 104.411 73.1165 104.303 73.1165C104.194 73.1165 104.087 73.1444 103.993 73.1975C103.898 73.2506 103.818 73.3271 103.761 73.4197C101.57 77.2526 100.169 81.486 99.6421 85.8695C99.5447 86.6687 100.799 86.6617 100.896 85.8695C101.072 84.4489 101.347 83.0423 101.718 81.6598C101.766 81.6503 101.813 81.6359 101.858 81.6169C103.526 80.7797 105.409 80.473 107.256 80.7379C107.272 80.7403 107.288 80.7368 107.304 80.7383C107.914 82.3424 108.385 83.9958 108.713 85.6803C108.866 86.4718 110.074 86.1367 109.922 85.347ZM102.169 80.122C102.745 78.3364 103.478 76.6054 104.359 74.9493C105.292 76.3745 106.102 77.8764 106.78 79.4387C105.212 79.3208 103.636 79.5542 102.169 80.122V80.122Z" fill="#6AC5F8"/>
    </g>
    <defs>
        <clipPath id="clip0_129_255">
            <rect width="459" height="459" fill="white"/>
        </clipPath>
    </defs>
</svg>