<svg width="38" height="38" viewBox="0 0 38 38" fill="none" xmlns="http://www.w3.org/2000/svg">
    <path d="M34.8333 18.8258V20.235C34.8333 25.8716 33.4241 27.265 27.8033 27.265H10.1966C4.57579 27.265 3.16663 25.8558 3.16663 20.235V10.1966C3.16663 4.57579 4.57579 3.16663 10.1966 3.16663H12.6666" stroke="#5667FA" stroke-width="1.5" stroke-linecap="round" stroke-linejoin="round"/>
    <path d="M19 27.265V34.8333" stroke="#5667FA" stroke-width="1.5" stroke-linecap="round" stroke-linejoin="round"/>
    <path d="M3.16663 20.5834H34.8333" stroke="#5667FA" stroke-width="1.5" stroke-linecap="round" stroke-linejoin="round"/>
    <path d="M11.875 34.8334H26.125" stroke="#5667FA" stroke-width="1.5" stroke-linecap="round" stroke-linejoin="round"/>
    <path d="M28.2784 14.8358H20.7417C18.5567 14.8358 17.8284 13.3792 17.8284 11.9225V6.34916C17.8284 4.6075 19.2534 3.1825 20.995 3.1825H28.2784C29.8934 3.1825 31.1917 4.48083 31.1917 6.09583V11.9225C31.1917 13.5375 29.8934 14.8358 28.2784 14.8358Z" stroke="#5667FA" stroke-width="1.5" stroke-linecap="round" stroke-linejoin="round"/>
    <path d="M33.1075 12.54L31.1917 11.1942V6.82417L33.1075 5.47833C34.0575 4.82917 34.8333 5.225 34.8333 6.38083V11.6533C34.8333 12.8092 34.0575 13.205 33.1075 12.54Z" stroke="#5667FA" stroke-width="1.5" stroke-linecap="round" stroke-linejoin="round"/>
</svg>
