<svg width="34" height="34" viewBox="0 0 34 34" fill="none" xmlns="http://www.w3.org/2000/svg">
    <path d="M13.1892 20.825L15.3142 22.95L20.9809 17.2833" stroke="#5667FA" stroke-width="1.5" stroke-linecap="round" stroke-linejoin="round"/>
    <path d="M14.1667 8.50004H19.8334C22.6667 8.50004 22.6667 7.08337 22.6667 5.66671C22.6667 2.83337 21.25 2.83337 19.8334 2.83337H14.1667C12.75 2.83337 11.3334 2.83337 11.3334 5.66671C11.3334 8.50004 12.75 8.50004 14.1667 8.50004Z" stroke="#5667FA" stroke-width="1.5" stroke-miterlimit="10" stroke-linecap="round" stroke-linejoin="round"/>
    <path d="M22.6667 5.69495C27.3842 5.94995 29.75 7.69245 29.75 14.1666V22.6666C29.75 28.3333 28.3333 31.1666 21.25 31.1666H12.75C5.66667 31.1666 4.25 28.3333 4.25 22.6666V14.1666C4.25 7.70661 6.61583 5.94995 11.3333 5.69495" stroke="#5667FA" stroke-width="1.5" stroke-miterlimit="10" stroke-linecap="round" stroke-linejoin="round"/>
</svg>
