<svg width="27" height="27" viewBox="0 0 27 27" fill="none" xmlns="http://www.w3.org/2000/svg">
    <path d="M13.5 4.65127e-08C10.83 4.65127e-08 8.21987 0.791761 5.99981 2.27516C3.77974 3.75856 2.04942 5.86697 1.02763 8.33377C0.00584933 10.8006 -0.261496 13.515 0.259405 16.1337C0.780305 18.7525 2.06606 21.1579 3.95406 23.0459C5.84207 24.9339 8.24754 26.2197 10.8663 26.7406C13.485 27.2615 16.1994 26.9942 18.6662 25.9724C21.133 24.9506 23.2414 23.2203 24.7248 21.0002C26.2082 18.7801 27 16.17 27 13.5C27.0001 11.7271 26.6511 9.97156 25.9727 8.3336C25.2943 6.69564 24.2999 5.20735 23.0463 3.95373C21.7927 2.70011 20.3044 1.70571 18.6664 1.02733C17.0284 0.34894 15.2729 -0.000147121 13.5 4.65127e-08V4.65127e-08ZM17.7923 20.4558C17.7418 20.5818 17.6649 20.6956 17.5668 20.7894C17.4688 20.8833 17.3518 20.9551 17.2237 21C17.0956 21.0449 16.9593 21.062 16.8241 21.05C16.6889 21.038 16.5578 20.9972 16.4396 20.9304L12.7748 18.0827L10.4227 20.2527C10.3681 20.293 10.3043 20.319 10.2371 20.3282C10.1698 20.3373 10.1014 20.3295 10.038 20.3053L10.4889 16.2708L10.5033 16.2823L10.5125 16.2026C10.5125 16.2026 17.1073 10.1985 17.3759 9.94269C17.6479 9.68754 17.5582 9.63219 17.5582 9.63219C17.5736 9.32098 17.0701 9.63219 17.0701 9.63219L8.3322 15.2536L4.69329 14.0143C4.69329 14.0143 4.13439 13.8139 4.08174 13.3731C4.02639 12.9357 4.71151 12.6981 4.71151 12.6981L19.1795 6.95046C19.1795 6.95046 20.3688 6.42056 20.3688 7.2981L17.7923 20.4558Z" fill="#5667FA"/>
</svg>